<svg width="16" height="16" viewBox="0 0 16 16" fill="none" xmlns="http://www.w3.org/2000/svg">
<path d="M6 13.2513C6.00018 13.0522 6.08037 12.8614 6.22294 12.7207L10.1102 8.88034C10.2278 8.76413 10.3212 8.62616 10.3848 8.47431C10.4485 8.32246 10.4813 8.15971 10.4813 7.99534C10.4813 7.83097 10.4485 7.66822 10.3848 7.51637C10.3212 7.36451 10.2278 7.22654 10.1102 7.11033L6.228 3.27248C6.08956 3.13087 6.01296 2.9412 6.01469 2.74433C6.01642 2.54746 6.09635 2.35913 6.23726 2.21992C6.37818 2.08071 6.5688 2.00174 6.76807 2.00003C6.96735 1.99832 7.15933 2.074 7.30267 2.21077L11.1848 6.04563C11.7068 6.56234 12 7.26255 12 7.99259C12 8.72262 11.7068 9.42283 11.1848 9.93955L7.2976 13.7799C7.19146 13.8848 7.05624 13.9563 6.909 13.9854C6.76177 14.0145 6.60911 13.9999 6.47029 13.9433C6.33148 13.8868 6.21273 13.7909 6.12903 13.6677C6.04533 13.5445 6.00043 13.3996 6 13.2513Z" fill="black"/>
</svg>
