<svg width="16" height="16" viewBox="0 0 16 16" fill="none" xmlns="http://www.w3.org/2000/svg">
<path d="M10 13.2513C9.99982 13.0522 9.91963 12.8614 9.77706 12.7207L5.88983 8.88034C5.77217 8.76413 5.67884 8.62616 5.61516 8.47431C5.55148 8.32246 5.51871 8.15971 5.51871 7.99534C5.51871 7.83097 5.55148 7.66822 5.61516 7.51637C5.67884 7.36451 5.77217 7.22654 5.88983 7.11033L9.772 3.27248C9.91044 3.13087 9.98704 2.9412 9.98531 2.74433C9.98358 2.54746 9.90365 2.35913 9.76274 2.21992C9.62182 2.08071 9.4312 2.00174 9.23193 2.00003C9.03265 1.99832 8.84067 2.074 8.69733 2.21077L4.81517 6.04563C4.29317 6.56234 4 7.26255 4 7.99259C4 8.72262 4.29317 9.42283 4.81517 9.93955L8.7024 13.7799C8.80854 13.8848 8.94376 13.9563 9.091 13.9854C9.23823 14.0145 9.39089 13.9999 9.52971 13.9433C9.66852 13.8868 9.78727 13.7909 9.87097 13.6677C9.95467 13.5445 9.99957 13.3996 10 13.2513Z" fill="black"/>
</svg>
